<?xml version="1.0" encoding="utf-8"?>
<!-- Generator: Adobe Illustrator 23.0.2, SVG Export Plug-In . SVG Version: 6.00 Build 0)  -->
<svg version="1.1" id="Layer_1" xmlns="http://www.w3.org/2000/svg" xmlns:xlink="http://www.w3.org/1999/xlink" x="0px" y="0px"
	 viewBox="0 0 71.3 16.7" style="enable-background:new 0 0 71.3 16.7;" xml:space="preserve">
<style type="text/css">
	.st0{fill:#4375A3;}
</style>
<g id="soullogo" transform="translate(-12.4 -8)">
	<path id="Path_66" class="st0" d="M51.1,8c0,4,0,8,0,12c0,1.6,0.1,1.7,1.7,1.9v2.6c-2.6,0.5-4.3-0.4-4.8-2.7c0-0.2,0-0.4,0-0.7V8
		H51.1L51.1,8z"/>
	<path id="Path_67" class="st0" d="M68.5,24.6v-3.3c0-1.4,0-2.7,0-4.1c0-1.1-0.9-1.9-1.9-1.9c0,0,0,0,0,0c-1-0.1-2,0.7-2,1.8
		c0,0,0,0.1,0,0.1c0,2.1,0,4.2,0,6.3v1.1h-3v-7.1c0.1-1.1-0.6-2.1-1.8-2.3c-0.1,0-0.3,0-0.4,0c-0.1,0-0.2,0-0.3,0
		c-1.5,0-1.7,0.2-1.7,1.6v7.8h-3.2c0-0.1,0-0.3,0-0.4c0-3.4,0-6.8,0-10.2c-0.1-0.4,0.2-0.7,0.5-0.8c1.7-0.6,3.5-0.9,5.3-0.8
		c1.2,0,2.3,0.7,2.9,1.7c1.7-2.6,5.7-2,7.3-0.5c1,1,1.5,2.3,1.4,3.7c0.1,2.4,0,4.9,0,7.3L68.5,24.6L68.5,24.6z"/>
	<path id="Path_68" class="st0" d="M28.6,12.4c-3.4,0-6.2,2.7-6.2,6.1s2.7,6.2,6.1,6.2c3.4,0,6.2-2.7,6.2-6.1c0,0,0,0,0,0
		C34.7,15.2,32,12.4,28.6,12.4 M28.4,22.6c-2.2-0.1-4-2-3.9-4.2c0.1-2.2,1.9-3.9,4.1-3.9c2.2,0,4,1.9,4,4.1c0,2.2-1.8,4-4,4
		C28.5,22.6,28.5,22.6,28.4,22.6"/>
	<path id="Path_69" class="st0" d="M46.7,12.4c0,3.7,0,7.4,0,11c0,0.2-0.1,0.3-0.3,0.4c-2.5,0.8-5,1.3-7.6,0.3
		c-2-0.7-3.3-2.6-3.2-4.7v-7h3.2v3c0,1.3,0,2.6,0,3.9c-0.1,1,0.6,2,1.5,2.3c0.9,0.3,1.9,0.4,2.8,0.1c0.1,0,0.3-0.4,0.3-0.6
		c0-2.7,0-5.3,0-8v-0.8L46.7,12.4L46.7,12.4z"/>
	<path id="Path_70" class="st0" d="M71.8,12.4c1,0,1.9,0,2.9,0c0.2,0,0.4,0.3,0.5,0.5c0.8,2.5,1.5,4.9,2.3,7.4
		c0,0.2,0.1,0.3,0.2,0.6c0.9-3,1.8-5.8,2.7-8.6h3.3c-0.3,0.9-0.5,1.7-0.8,2.6c-1,3.1-2,6.1-3,9.2c-0.1,0.4-0.4,0.6-0.8,0.6
		c0,0,0,0,0,0c-1,0-2,0-3,0c-0.2,0-0.4-0.1-0.5-0.3c-1.3-3.9-2.5-7.9-3.8-11.8C71.7,12.6,71.7,12.5,71.8,12.4"/>
	<path id="Path_71" class="st0" d="M12.4,22.7c0.7-0.8,1.2-1.3,1.8-1.9c0.9,0.8,2,1.2,3.2,1.1c0.8,0,1.1-0.3,1.2-0.9
		c0-0.6-0.3-0.9-1-1.1c-1.1-0.1-2.2-0.6-3.2-1.2c-1.4-1.1-1.8-3.1-0.7-4.5c0.1-0.2,0.3-0.3,0.4-0.5c0.6-0.5,1.4-0.9,2.2-1.1
		c1.6-0.5,3.3-0.1,4.6,0.9c0.2,0.1,0.4,0.3,0.6,0.4c-0.6,0.7-1.1,1.3-1.7,1.9c-0.8-0.5-1.7-0.8-2.6-0.7c-0.5,0-1,0.2-1.1,0.8
		c-0.1,0.6,0.3,0.9,0.8,1.1c0.8,0.3,1.7,0.4,2.5,0.8c1.4,0.4,2.3,1.8,2.2,3.3c0,1.1-0.6,2.1-1.5,2.7c-2,1.2-4.6,1.2-6.5-0.1
		C13.2,23.4,12.8,23.1,12.4,22.7"/>
	<path id="Path_72" class="st0" d="M31.3,18.5c0,1.5-1.2,2.7-2.7,2.7c-1.5,0-2.7-1.2-2.7-2.7c0-1.5,1.2-2.7,2.7-2.7
		C30,15.8,31.3,17,31.3,18.5C31.3,18.5,31.3,18.5,31.3,18.5"/>
</g>
</svg>
