<?xml version="1.0" encoding="utf-8"?>
<!-- Generator: Adobe Illustrator 23.0.2, SVG Export Plug-In . SVG Version: 6.00 Build 0)  -->
<svg version="1.1" id="Layer_1" xmlns="http://www.w3.org/2000/svg" xmlns:xlink="http://www.w3.org/1999/xlink" x="0px" y="0px"
	 viewBox="0 0 46 18.1" style="enable-background:new 0 0 46 18.1;" xml:space="preserve">
<style type="text/css">
	.st0{enable-background:new    ;}
	.st1{fill:#4375A3;}
</style>
<g class="st0">
	<path class="st1" d="M16,17h-4.2v-9c0-1.1-0.2-2-0.6-2.5c-0.4-0.6-1-0.8-1.8-0.8C8.3,4.6,7.6,5,7.1,5.7C6.6,6.5,6.3,7.8,6.3,9.7V17
		H2.1V1.5h3.2l0.6,2h0.2c0.4-0.7,1-1.3,1.8-1.7s1.7-0.6,2.7-0.6c2.3,0,3.9,0.8,4.7,2.3h0.4c0.4-0.7,1-1.3,1.8-1.7
		c0.8-0.4,1.7-0.6,2.7-0.6c1.8,0,3.1,0.5,4,1.4c0.9,0.9,1.4,2.3,1.4,4.3V17h-4.2v-9c0-1.1-0.2-2-0.6-2.5c-0.4-0.6-1-0.8-1.8-0.8
		c-1,0-1.8,0.4-2.3,1.1C16.2,6.4,16,7.6,16,9.2V17z"/>
	<path class="st1" d="M33.7,17L27.8,1.5h4.4l3,8.8c0.3,1.1,0.5,2.2,0.6,3.2h0.1c0-0.9,0.3-1.9,0.6-3.2l3-8.8h4.4L38,17H33.7z"/>
</g>
</svg>
